<?xml version="1.0" encoding="utf-8"?>
<!-- Generator: Adobe Illustrator 22.0.1, SVG Export Plug-In . SVG Version: 6.00 Build 0)  -->
<svg xmlns="http://www.w3.org/2000/svg" xmlns:xlink="http://www.w3.org/1999/xlink" version="1.1" id="Layer_1" x="0px" y="0px" viewBox="0 0 256 256" style="enable-background:new 0 0 256 256;" xml:space="preserve" width="512" height="512">
<style type="text/css">
	.st0{fill:#3A312A;}
	.st1{fill:#D7E057;}
	.st2{fill:#F16C7A;}
	.st3{fill:#FCE8CB;}
	.st4{fill:#87796F;}
	.st5{fill:#8AC6DD;}
	.st6{fill:#CE4E61;}
	.st7{fill:#6CA8BF;}
	.st8{fill:#B9C239;}
	.st9{fill:#DECAAD;}
	.st10{fill:#695B51;}
	.st11{fill-rule:evenodd;clip-rule:evenodd;fill:#FCE8CB;}
	.st12{fill:#F5978A;}
	.st13{fill:#68A8BC;}
	.st14{fill:#B9BC39;}
	.st15{fill:#6B5B51;}
	.st16{fill:#D34E5C;}
	.st17{fill-rule:evenodd;clip-rule:evenodd;fill:#87796F;}
	.st18{fill-rule:evenodd;clip-rule:evenodd;fill:#F16C7A;}
</style>
<g>
	<g>
		<g>
			<rect x="115.888" y="195.558" class="st4" width="23.548" height="26.323"/>
		</g>
	</g>
	<g>
		<g>
			<path class="st0" d="M139.437,194.058h-23.549c-0.828,0-1.5,0.671-1.5,1.5v26.323c0,0.829,0.672,1.5,1.5,1.5h23.549     c0.828,0,1.5-0.671,1.5-1.5v-26.323C140.937,194.729,140.265,194.058,139.437,194.058z M137.937,220.381h-20.549v-23.323h20.549     V220.381z"/>
		</g>
	</g>
	<g>
		<g>
			<path class="st4" d="M145.217,221.881h-35.109c-9.632,0-17.44,7.808-17.44,17.44h69.99     C162.657,229.689,154.849,221.881,145.217,221.881z"/>
		</g>
	</g>
	<g>
		<g>
			<path class="st0" d="M145.217,220.381h-35.109c-10.443,0-18.94,8.497-18.94,18.94c0,0.829,0.672,1.5,1.5,1.5h69.99     c0.828,0,1.5-0.671,1.5-1.5C164.157,228.877,155.66,220.381,145.217,220.381z M94.237,237.821     c0.758-8.089,7.586-14.44,15.87-14.44h35.109c8.284,0,15.112,6.352,15.87,14.44H94.237z"/>
		</g>
	</g>
	<g>
		<g>
			<path class="st4" d="M224.383,16.441H30.941c-10.096,0-18.279,8.184-18.279,18.279v142.559c0,10.095,8.184,18.279,18.279,18.279     h193.441c10.096,0,18.279-8.184,18.279-18.279V34.72C242.662,24.625,234.478,16.441,224.383,16.441z"/>
		</g>
	</g>
	<g>
		<g>
			<path class="st0" d="M224.383,14.941h-46.585c-0.828,0-1.5,0.671-1.5,1.5c0,0.829,0.672,1.5,1.5,1.5h46.585     c9.252,0,16.779,7.527,16.779,16.779v142.559c0,9.252-7.527,16.779-16.779,16.779H30.941c-9.252,0-16.779-7.527-16.779-16.779     V34.72c0-9.252,7.527-16.779,16.779-16.779h132.584c0.828,0,1.5-0.671,1.5-1.5c0-0.829-0.672-1.5-1.5-1.5H30.941     c-10.906,0-19.779,8.873-19.779,19.779v142.559c0,10.906,8.873,19.779,19.779,19.779h193.441     c10.906,0,19.779-8.873,19.779-19.779V34.72C244.162,23.814,235.289,14.941,224.383,14.941z"/>
		</g>
	</g>
	<g>
		<g>
			<path class="st3" d="M216.212,29.965h-177.1c-6.9,0-12.49,5.6-12.49,12.5v127.07c0,1.41,0.23,2.77,0.67,4.04     c1.67,4.92,6.33,8.46,11.82,8.46h177.1c6.9,0,12.49-5.6,12.49-12.5V42.465C228.702,35.564,223.112,29.965,216.212,29.965z"/>
		</g>
	</g>
	<g>
		<g>
			<path class="st0" d="M216.212,28.465h-177.1c-7.714,0-13.99,6.28-13.99,14v33.479c0,0.829,0.672,1.5,1.5,1.5     c0.828,0,1.5-0.671,1.5-1.5V42.465c0-6.065,4.931-11,10.99-11h177.1c6.06,0,10.99,4.935,10.99,11v127.07     c0,6.065-4.931,11-10.99,11h-177.1c-4.71,0-8.889-2.991-10.403-7.452c-0.39-1.123-0.587-2.317-0.587-3.548V90.818     c0-0.829-0.672-1.5-1.5-1.5c-0.828,0-1.5,0.671-1.5,1.5v78.716c0,1.566,0.253,3.091,0.749,4.522     c1.925,5.669,7.246,9.478,13.241,9.478h177.1c7.714,0,13.99-6.28,13.99-14V42.465C230.202,34.745,223.926,28.465,216.212,28.465z     "/>
		</g>
	</g>
	<g>
		<g>
			<path class="st9" d="M216.202,31.461h-14.99c6.06,0,10.99,4.94,10.99,11v127.07c0,6.07-4.93,11-10.99,11h15     c6.06,0,10.99-4.93,10.99-11V42.461C227.202,36.411,222.252,31.461,216.202,31.461z"/>
		</g>
	</g>
	<g>
		<g>
			<rect x="128.862" y="197.061" class="st10" width="9.07" height="23.32"/>
		</g>
	</g>
	<g>
		<g>
			<path class="st10" d="M145.212,223.381h-9.07c8.29,0,15.12,6.35,15.87,14.44h9.07     C160.332,229.731,153.502,223.381,145.212,223.381z"/>
		</g>
	</g>
	<g>
		<g>
			<path class="st0" d="M123.46,67l-9.666-18.805c-0.379-0.737-1.286-1.026-2.02-0.648c-0.737,0.378-1.027,1.283-0.648,2.02     l9.666,18.805c0.266,0.518,0.791,0.815,1.335,0.815c0.231,0,0.466-0.054,0.685-0.167C123.549,68.641,123.839,67.737,123.46,67z"/>
		</g>
	</g>
	<g>
		<g>
			<path class="st0" d="M143.551,47.547c-0.736-0.378-1.641-0.09-2.02,0.648L131.865,67c-0.379,0.737-0.089,1.641,0.648,2.019     c0.22,0.113,0.453,0.167,0.685,0.167c0.544,0,1.069-0.297,1.335-0.815l9.666-18.805C144.578,48.83,144.288,47.925,143.551,47.547     z"/>
		</g>
	</g>
	<g>
		<g>
			<path class="st0" d="M101.273,107.889l-19.571-9.41V82.158c0-0.829-0.672-1.5-1.5-1.5c-0.828,0-1.5,0.671-1.5,1.5v17.265     c0,0.577,0.33,1.102,0.85,1.352l20.421,9.818c0.21,0.101,0.432,0.148,0.649,0.148c0.559,0,1.095-0.313,1.352-0.851     C102.334,109.144,102.019,108.248,101.273,107.889z"/>
		</g>
	</g>
	<g>
		<g>
			<path class="st0" d="M101.975,111.085c-0.358-0.747-1.253-1.06-2.002-0.702l-20.421,9.818c-0.52,0.25-0.85,0.775-0.85,1.352     v17.265c0,0.829,0.672,1.5,1.5,1.5c0.828,0,1.5-0.671,1.5-1.5v-16.321l19.571-9.41     C102.019,112.728,102.334,111.832,101.975,111.085z"/>
		</g>
	</g>
	<g>
		<g>
			<path class="st0" d="M109.276,133.648c-0.358-0.747-1.254-1.06-2.002-0.702l-20.421,9.818c-0.519,0.25-0.85,0.775-0.85,1.352     v17.265c0,0.829,0.672,1.5,1.5,1.5c0.828,0,1.5-0.671,1.5-1.5V145.06l19.571-9.409     C109.321,135.291,109.636,134.395,109.276,133.648z"/>
		</g>
	</g>
	<g>
		<g>
			<path class="st0" d="M175.122,80.658c-0.828,0-1.5,0.671-1.5,1.5v16.321l-19.571,9.41c-0.746,0.359-1.061,1.255-0.701,2.002     c0.258,0.537,0.794,0.851,1.353,0.851c0.218,0,0.439-0.048,0.649-0.148l20.421-9.818c0.52-0.25,0.85-0.775,0.85-1.352V82.158     C176.622,81.329,175.95,80.658,175.122,80.658z"/>
		</g>
	</g>
	<g>
		<g>
			<path class="st0" d="M175.772,120.201l-20.421-9.818c-0.749-0.358-1.644-0.044-2.002,0.702c-0.359,0.747-0.045,1.643,0.701,2.002     l19.571,9.41v16.321c0,0.829,0.672,1.5,1.5,1.5s1.5-0.671,1.5-1.5v-17.265C176.622,120.977,176.292,120.451,175.772,120.201z"/>
		</g>
	</g>
	<g>
		<g>
			<path class="st0" d="M168.471,142.764l-20.421-9.818c-0.748-0.358-1.644-0.044-2.002,0.702c-0.359,0.747-0.045,1.643,0.701,2.002     l19.571,9.409v16.321c0,0.829,0.672,1.5,1.5,1.5s1.5-0.671,1.5-1.5v-17.265C169.32,143.54,168.99,143.014,168.471,142.764z"/>
		</g>
	</g>
	<g>
		<g>
			<circle class="st2" cx="127.467" cy="79.658" r="18.003"/>
		</g>
	</g>
	<g>
		<g>
			<path class="st0" d="M127.467,60.155c-10.754,0-19.503,8.749-19.503,19.503s8.749,19.503,19.503,19.503     c10.755,0,19.504-8.749,19.504-19.503S138.222,60.155,127.467,60.155z M127.467,96.162c-9.1,0-16.503-7.403-16.503-16.503     s7.403-16.503,16.503-16.503c9.101,0,16.504,7.403,16.504,16.503S136.567,96.162,127.467,96.162z"/>
		</g>
	</g>
	<g>
		<g>
			<ellipse class="st4" cx="127.467" cy="123.494" rx="29.525" ry="34.893"/>
		</g>
	</g>
	<g>
		<g>
			<path class="st0" d="M127.467,87.101c-17.106,0-31.024,16.326-31.024,36.393s13.918,36.393,31.024,36.393     c17.107,0,31.025-16.326,31.025-36.393S144.574,87.101,127.467,87.101z M127.467,156.887c-15.453,0-28.024-14.98-28.024-33.393     s12.571-33.393,28.024-33.393s28.025,14.98,28.025,33.393S142.92,156.887,127.467,156.887z"/>
		</g>
	</g>
	<g>
		<g>
			<path class="st1" d="M127.467,84.018c-18.447,0-33.403,17.675-33.403,39.476c0,15.526,7.585,28.961,18.617,35.402l14.786-52.585     l14.786,52.585c11.032-6.44,18.617-19.875,18.617-35.402C160.87,101.693,145.913,84.018,127.467,84.018z"/>
		</g>
	</g>
	<g>
		<g>
			<path class="st0" d="M127.467,82.518c-19.246,0-34.903,18.382-34.903,40.977c0,15.664,7.419,29.725,19.361,36.697     c0.401,0.234,0.887,0.27,1.318,0.095c0.43-0.174,0.756-0.538,0.882-0.984l13.342-47.449l13.342,47.449     c0.126,0.447,0.452,0.811,0.882,0.984c0.182,0.073,0.372,0.109,0.563,0.109c0.263,0,0.523-0.069,0.756-0.205     c11.942-6.971,19.361-21.032,19.361-36.697C162.37,100.899,146.713,82.518,127.467,82.518z M143.155,156.562l-14.244-50.657     c-0.183-0.647-0.772-1.094-1.444-1.094s-1.262,0.447-1.444,1.094l-14.244,50.657c-10.049-6.738-16.215-19.213-16.215-33.067     c0-20.94,14.312-37.977,31.903-37.977s31.903,17.036,31.903,37.977C159.37,137.349,153.204,149.824,143.155,156.562z"/>
		</g>
	</g>
	<g>
		<g>
			<path class="st5" d="M168.036,151.649c-0.913,2.217-2.189,4.322-3.814,6.218c-2.487,2.897-5.5,5.016-8.76,6.357l23.82,23.82     l9.699,9.699l9.417,9.417c0.917-2.222,2.193-4.327,3.819-6.222c2.487-2.888,5.5-5.007,8.756-6.353L168.036,151.649z"/>
		</g>
	</g>
	<g>
		<g>
			<path class="st0" d="M212.033,193.524l-42.937-42.936c-0.354-0.355-0.862-0.508-1.354-0.41c-0.492,0.098-0.902,0.436-1.093,0.899     c-0.87,2.112-2.07,4.068-3.565,5.812c-2.271,2.644-5.026,4.645-8.193,5.947c-0.464,0.191-0.802,0.601-0.9,1.093     s0.056,1,0.41,1.355l42.937,42.937c0.284,0.284,0.667,0.439,1.061,0.439c0.098,0,0.195-0.009,0.293-0.029     c0.492-0.098,0.902-0.435,1.094-0.898c0.874-2.117,2.076-4.075,3.569-5.816c2.271-2.637,5.027-4.637,8.192-5.946     c0.463-0.191,0.8-0.602,0.897-1.093C212.542,194.387,212.388,193.878,212.033,193.524z M201.078,199.961     c-1.221,1.424-2.27,2.973-3.133,4.625l-17.604-17.603l-22.304-22.304c2.775-1.445,5.231-3.401,7.322-5.836     c1.221-1.423,2.269-2.971,3.129-4.619l39.909,39.908C205.626,195.579,203.171,197.532,201.078,199.961z"/>
		</g>
	</g>
	<g>
		<g>
			<path class="st5" d="M221.023,209.083c1.341-1.341,3.516-1.341,4.857,0l15.552,15.552c3.325-8.357,1.607-18.252-5.158-25.017     c-9.487-9.487-25.143-9.043-34.058,1.323c-7.306,8.495-7.443,21.22-0.297,29.849c6.736,8.135,17.528,10.408,26.534,6.824     l-15.552-15.552c-1.341-1.341-1.341-3.516,0-4.857L221.023,209.083z"/>
		</g>
	</g>
	<g>
		<g>
			<path class="st0" d="M237.336,198.559c-4.846-4.846-11.545-7.483-18.408-7.22c-6.95,0.261-13.289,3.324-17.849,8.625     c-7.735,8.995-7.871,22.66-0.314,31.784c4.838,5.842,11.87,9.021,19.093,9.021c3.067,0,6.17-0.574,9.15-1.76     c0.469-0.187,0.813-0.596,0.914-1.091c0.103-0.494-0.051-1.006-0.408-1.363l-15.553-15.552c-0.754-0.754-0.754-1.982,0-2.736     l8.123-8.123c0.73-0.73,2.006-0.73,2.736,0l15.552,15.552c0.356,0.357,0.868,0.509,1.363,0.409     c0.494-0.102,0.904-0.446,1.091-0.915C246.482,216.003,244.327,205.549,237.336,198.559z M240.785,221.867l-13.844-13.845     c-0.933-0.932-2.172-1.445-3.489-1.445c-1.318,0-2.558,0.513-3.489,1.445l-8.123,8.123c-1.924,1.924-1.924,5.055,0,6.979     l13.846,13.845c-8.212,2.29-17.056-0.426-22.61-7.134c-6.636-8.013-6.516-20.014,0.279-27.915     c4.008-4.661,9.579-7.354,15.687-7.583c0.27-0.01,0.539-0.015,0.808-0.015c5.738,0,11.299,2.292,15.366,6.358     C240.803,206.268,242.874,214.372,240.785,221.867z"/>
		</g>
	</g>
	<g>
		<g>
			<path class="st5" d="M164.523,128.016c-6.736-8.135-17.528-10.408-26.534-6.824l15.552,15.552c1.341,1.341,1.341,3.516,0,4.857     l-8.122,8.122c-1.341,1.341-3.516,1.341-4.857,0l-15.552-15.552c-3.325,8.357-1.607,18.252,5.158,25.017     c9.487,9.487,25.143,9.043,34.058-1.323C171.531,149.371,171.669,136.646,164.523,128.016z"/>
		</g>
	</g>
	<g>
		<g>
			<path class="st0" d="M165.678,127.06c-6.891-8.323-18.238-11.242-28.243-7.262c-0.469,0.187-0.813,0.596-0.914,1.091     c-0.103,0.494,0.051,1.006,0.408,1.363l15.552,15.553c0.365,0.365,0.566,0.851,0.566,1.368s-0.201,1.002-0.566,1.368     l-8.122,8.122c-0.73,0.731-2.006,0.731-2.736,0l-15.553-15.552c-0.357-0.357-0.87-0.51-1.363-0.409     c-0.494,0.102-0.904,0.446-1.091,0.915c-3.656,9.187-1.5,19.641,5.491,26.632c4.629,4.629,10.958,7.238,17.488,7.238     c0.307,0,0.613-0.006,0.92-0.018c6.95-0.261,13.289-3.324,17.849-8.625C173.099,149.849,173.234,136.185,165.678,127.06z      M163.088,156.888c-4.008,4.661-9.579,7.354-15.686,7.584c-6.022,0.217-11.917-2.086-16.175-6.344     c-5.588-5.588-7.66-13.693-5.571-21.188l13.845,13.844c0.932,0.932,2.171,1.445,3.489,1.445c1.317,0,2.557-0.513,3.489-1.445     l8.122-8.122c0.933-0.932,1.445-2.171,1.445-3.49s-0.513-2.558-1.445-3.489l-13.845-13.845c8.205-2.29,17.055,0.425,22.61,7.135     C170.003,136.986,169.883,148.987,163.088,156.888z"/>
		</g>
	</g>
</g>
</svg>
