<svg height="512" viewBox="0 0 64 64" width="512" xmlns="http://www.w3.org/2000/svg"><g id="computer-virus-protect-anti_virus-security" data-name="computer-virus-protect-anti virus-security"><path d="m61 41v4a4 4 0 0 1 -4 4h-50a4 4 0 0 1 -4-4v-4z" fill="#898890"/><path d="m61 17v24h-58v-24a4 4 0 0 1 4-4h50a4 4 0 0 1 4 4z" fill="#46f8ff"/><path d="m44 57v4h-24v-4a2.006 2.006 0 0 1 2-2h20a2.006 2.006 0 0 1 2 2z" fill="#898890"/><path d="m27 49h10v6h-10z" fill="#c6c5ca"/><path d="m61 41v4a4 4 0 0 1 -4 4h-5a4 4 0 0 0 4-4v-4z" fill="#787680"/><path d="m61 17v24h-5v-24a4 4 0 0 0 -4-4h5a4 4 0 0 1 4 4z" fill="#00e7f0"/><path d="m44 57v4h-4v-4a2.006 2.006 0 0 0 -2-2h4a2.006 2.006 0 0 1 2 2z" fill="#787680"/><path d="m33 49h4v6h-4z" fill="#acabb1"/><path d="m49 20a17.005 17.005 0 1 1 -1.51-7 17 17 0 0 1 1.51 7z" fill="#bdfdff"/><path d="m49 20a17 17 0 0 1 -17 17 16.4 16.4 0 0 1 -2-.12 17 17 0 0 0 0-33.76 16.524 16.524 0 0 1 2-.12 17.005 17.005 0 0 1 17 17z" fill="#00e7f0"/><path d="m38 22v2a5.923 5.923 0 0 1 -.29 1.85l-5.71-2.85v-5h6z" fill="#c0ab91"/><path d="m38 18h-12a6 6 0 0 1 6-6 6.009 6.009 0 0 1 6 6z" fill="#ff3051"/><path d="m38 18v6a5.923 5.923 0 0 1 -.29 1.85l-2.73-1.36v-.01c.01-.16.02-.32.02-.48v-6z" fill="#a78966"/><path d="m38 18h-3a5.944 5.944 0 0 0 -1.76-4.24 5.782 5.782 0 0 0 -2.74-1.56 5.715 5.715 0 0 1 1.5-.2 6.009 6.009 0 0 1 6 6z" fill="#cd2a00"/><path d="m32 23 5.71 2.85a6.013 6.013 0 0 1 -5.71 4.15z" fill="#ffde55"/><path d="m32 23v7a6.013 6.013 0 0 1 -5.71-4.15z" fill="#c0ab91"/><path d="m32 18v5l-5.71 2.85a5.923 5.923 0 0 1 -.29-1.85v-6z" fill="#ffde55"/><path d="m57 12h-8.9a17.96 17.96 0 0 0 -32.2 0h-8.9a5 5 0 0 0 -5 5v28a5 5 0 0 0 5 5h19v4h-4a3.009 3.009 0 0 0 -3 3v4a1 1 0 0 0 1 1h24a1 1 0 0 0 1-1v-4a3.009 3.009 0 0 0 -3-3h-4v-4h19a5 5 0 0 0 5-5v-28a5 5 0 0 0 -5-5zm-25-8a16 16 0 1 1 -16 16 16.021 16.021 0 0 1 16-16zm10 52a1 1 0 0 1 1 1v3h-22v-3a1 1 0 0 1 1-1zm-14-2v-4h8v4zm32-9a3.009 3.009 0 0 1 -3 3h-50a3.009 3.009 0 0 1 -3-3v-3h56zm0-5h-56v-23a3.009 3.009 0 0 1 3-3h8.05a17.805 17.805 0 0 0 -1.05 6 18 18 0 0 0 36 0 17.805 17.805 0 0 0 -1.05-6h8.05a3.009 3.009 0 0 1 3 3z"/><path d="m54 44h2v2h-2z"/><path d="m50 44h2v2h-2z"/><path d="m39 23h1.84l2.84.95.64-1.9-3-1a1.185 1.185 0 0 0 -.32-.05h-2v-2h1.84l2.84.95.64-1.9-3-1a1.185 1.185 0 0 0 -.32-.05h-2.08a7 7 0 0 0 -3.96-5.33 3.974 3.974 0 0 0 1.04-2.67v-2h-2v2a2 2 0 0 1 -4 0v-2h-2v2a3.974 3.974 0 0 0 1.04 2.67 7 7 0 0 0 -3.96 5.33h-2.08a1.185 1.185 0 0 0 -.32.05l-3 1 .64 1.9 2.84-.95h1.84v2h-2a1.185 1.185 0 0 0 -.32.05l-3 1 .64 1.9 2.84-.95h1.84v1a6.634 6.634 0 0 0 .08 1h-2.08a1.185 1.185 0 0 0 -.32.05l-3 1 .64 1.9 2.84-.95h2.52a6.993 6.993 0 0 0 12.64 0h2.52l2.84.95.64-1.9-3-1a1.185 1.185 0 0 0 -.32-.05h-2.08a6.634 6.634 0 0 0 .08-1zm-8 5.9a5 5 0 0 1 -3.4-2.58l3.4-1.7zm0-6.52-3.96 1.98c-.01-.12-.04-.24-.04-.36v-5h4zm-3.9-5.38a5 5 0 0 1 9.8 0zm5.9 11.9v-4.28l3.4 1.7a5 5 0 0 1 -3.4 2.58zm4-4.9c0 .12-.03.24-.04.36l-3.96-1.98v-3.38h4z"/></g></svg>