<?xml version="1.0" encoding="UTF-8"?>
<!DOCTYPE svg PUBLIC "-//W3C//DTD SVG 1.1//EN" "http://www.w3.org/Graphics/SVG/1.1/DTD/svg11.dtd">
<!-- Creator: CorelDRAW 2019 (64-Bit) -->
<svg xmlns="http://www.w3.org/2000/svg" xml:space="preserve" width="566px" height="566px" version="1.1" style="shape-rendering:geometricPrecision; text-rendering:geometricPrecision; image-rendering:optimizeQuality; fill-rule:evenodd; clip-rule:evenodd"
viewBox="0 0 497.32 497.32"
 xmlns:xlink="http://www.w3.org/1999/xlink">
 <defs>
  <style type="text/css">
   <![CDATA[
    .fil1 {fill:none}
    .fil0 {fill:#035FD8}
   ]]>
  </style>
 </defs>
 <g id="Capa_x0020_1">
  <metadata id="CorelCorpID_0Corel-Layer"/>
  <path class="fil0" d="M352.45 151.64l-19.56 0 0 -73.2c0,-3.51 -3.01,-6.52 -6.52,-6.52l-155.93 0c-3.51,0 -6.02,3.01 -6.02,6.52l0 73.2 -20.05 0c0,0 0,0 0,0 -3.01,0 -6.02,2.51 -6.02,6.02 0,0 0,0 0,0l0 102.78c0,1 0,1.51 0.5,2.01l25.57 74.7 0 29.58c0,15.55 12.54,28.08 28.08,28.08l17.05 0 0 26.58c0,1.5 1,3 2.01,4.01l74.2 0c1,-1 1.51,-2.51 1.51,-4.01 0,0 0,0 0,0l0 -26.58 17.54 0c15.55,0 28.08,-12.53 28.08,-28.08l0 -29.58 25.57 -74.7c0,-0.51 0.51,-1.01 0.51,-2.01l0 -102.78c0,0 0,0 0,0 0,-3.51 -3.01,-6.02 -6.52,-6.02 0,0 0,0 0,0l0 0 0 0zm-34.6 102.79l-138.88 0c-3.51,0 -6.52,2.5 -6.52,6.01 0,3.51 3,6.52 6.52,6.52l138.88 0c3.51,0 6.52,-3 6.52,-6.52 0,-3.51 -3.01,-6.01 -6.52,-6.01zm-13.04 37.6l-112.81 0c-3.51,0 -6.02,3.01 -6.02,6.52 0,3.51 2.51,6.02 6.02,6.02l112.81 0c3.51,0 6.52,-2.51 6.52,-6.02 0,-3.51 -3,-6.52 -6.52,-6.52l0 0zm-11.03 37.61l-90.75 0c-3.51,0 -6.01,3 -6.01,6.51 0,3.51 2.5,6.52 6.01,6.52l90.75 0c3.51,0 6.52,-3 6.52,-6.52 0,-3.51 -3,-6.51 -6.52,-6.51l0 0zm30.59 -138.89l0 43.62c0,3.51 3,6.52 6.52,6.52 3.5,0 6.01,-3.01 6.01,-6.52l0 -43.62c0,-3.51 -2.51,-6.02 -6.01,-6.02 -3.51,0 -6.52,2.51 -6.52,6.02zm-54.55 224.41l-4.12 0c0,0 0,0 0,0 0,0 0,0 0,0l-21.56 0c0,0 0,0 0,0 0,0 0,0 -0.5,0l-15.04 0 0 -20.34 41.22 0 0 20.34zm-92.86 -330.71l37.6 0 0 15.55c0,3.51 3.01,6.52 6.52,6.52 3.51,0 6.52,-3.01 6.52,-6.52l0 -15.55 42.12 0 0 15.55c0,3.51 2.51,6.52 6.01,6.52 3.52,0 6.53,-3.01 6.53,-6.52l0 -15.55 38.1 0 0 67.19 -49.14 0 0 -17.05c0,0 0,0 0,0 0,-3.51 -3,-6.01 -6.52,-6.01 0,0 0,0 0,0l-32.59 0c0,0 0,0 0,0 -3.51,0 -6.01,2.5 -6.01,6.01 0,0 0,0 0,0l0 17.05 -49.14 0 0 -67.19 0 0zm61.67 56.66l20.06 0 0 45.63 -20.06 0 0 -45.63zm107.3 118.33l-25.58 74.21c0,1 0,1.5 0,2.5 0,0 0,0 0,0l0 30.59c0,8.52 -7.01,15.54 -15.54,15.54l-112.31 0c-8.53,0 -15.55,-7.02 -15.55,-15.54l0 -30.59c0,-0.5 0,-0.5 0,-0.5 0,-0.5 0,-1 -0.5,-2l-25.57 -74.21 0 -95.26 75.21 0 0 29.08c0,0 0,0 0,0 0,3.51 2.5,6.01 6.02,6.01 0,0 0,0 0,0l32.59 0c0,0 0,0 0,0 3.5,0 6.52,-2.5 6.52,-6.01 0,0 0,0 0,0l0 -29.08 74.7 0 0 95.26 0.01 0z"/>
 </g>
 <g id="Capa_x0020_1_0">
  <metadata id="CorelCorpID_1Corel-Layer"/>
  <rect class="fil1" width="497.32" height="497.32"/>
 </g>
</svg>
